<svg width="374" height="331" viewBox="0 0 374 331" fill="none" xmlns="http://www.w3.org/2000/svg">
<path d="M69.5 4H140M69.5 4V50M69.5 4L140 98M140 4V51M140 4L69.5 98M69.5 50H4M69.5 50V98M69.5 50L4 98M4 50V98M4 50L69.5 98M4 98H69.5M69.5 98V185.5M69.5 98L140 185.5M140 98V51M140 98L69.5 185.5M140 98V185.5M140 98L200 50.6532M140 98H200M313 50L255 98M313 50L255 50.3353M313 50L341.5 74M140 51L200 50.6532M140 51L200 98M255 98V154M255 98L200 50.6532M255 98H200M255 98H312.5M255 154L179 219H191M255 154L326 219H313M191 219H313M191 219V310M313 219V310M313 310H191M313 310H325V327H178.5V310H191M69.5 185.5L140 286.5M69.5 185.5V286.5M140 286.5V327H109M140 286.5L109 327M140 286.5V185.5M109 327H96M140 185.5L69.5 286.5M69.5 286.5V327H96M69.5 286.5L96 327M200 50.6532L255 50.3353M200 98L255 50.3353M255 50.3353L312.5 98M312.5 98H370L341.5 74M312.5 98L341.5 74M229.5 248.5V281H274.5V248.5H229.5Z" stroke="#FF6F16" stroke-width="8" stroke-linejoin="round"/>
</svg>
